<?xml version="1.0" standalone="no"?>
<!DOCTYPE svg PUBLIC "-//W3C//DTD SVG 20010904//EN"
 "http://www.w3.org/TR/2001/REC-SVG-20010904/DTD/svg10.dtd">
<svg version="1.0" xmlns="http://www.w3.org/2000/svg"
 width="400.000000pt" height="180.000000pt" viewBox="0 0 400.000000 180.000000"
 preserveAspectRatio="xMidYMid meet">

<g transform="translate(0.000000,180.000000) scale(0.100000,-0.100000)"
   stroke="none" fill="#21093A">
<path d="M740 1493 c-242 -32 -356 -124 -411 -330 -30 -109 -32 -390 -5 -508
43 -187 134 -282 316 -332 92 -25 424 -25 523 0 256 64 346 232 334 622 -7
241 -37 336 -136 428 -96 89 -191 117 -421 122 -91 2 -181 1 -200 -2z m290
-113 c56 -6 127 -20 158 -32 73 -27 143 -96 166 -164 50 -152 47 -440 -5 -580
-26 -68 -96 -134 -171 -158 -140 -46 -434 -43 -563 5 -83 31 -138 88 -166 176
-18 56 -23 98 -26 238 -10 373 64 486 341 515 107 11 154 11 266 0z"/>
<path d="M700 1257 c-35 -18 -48 -61 -29 -95 12 -21 23 -28 56 -30 33 -2 44 1
57 20 21 29 20 61 -1 86 -24 27 -53 34 -83 19z"/>
<path d="M1051 1078 c-18 -5 -44 -16 -57 -25 -22 -14 -24 -14 -24 1 0 13 -11
16 -55 16 -48 0 -55 -3 -60 -22 -10 -46 -75 -422 -75 -435 0 -9 16 -13 55 -13
30 0 55 1 55 3 1 34 54 285 65 307 35 67 125 91 170 45 14 -13 25 -28 25 -33
0 -4 -11 -71 -25 -148 -34 -187 -36 -174 30 -174 30 0 55 3 55 6 0 3 12 70 26
148 32 178 30 243 -11 286 -43 45 -104 59 -174 38z"/>
<path d="M616 853 c-21 -120 -40 -226 -42 -235 -5 -16 2 -18 51 -18 35 0 57 5
60 13 3 6 21 104 40 217 20 113 38 213 41 223 5 15 -2 17 -53 17 l-59 0 -38
-217z"/>
<path d="M1630 930 l0 -330 55 0 c53 0 55 1 55 27 0 24 1 25 18 10 29 -27 89
-47 137 -47 118 0 219 98 232 224 17 167 -135 307 -289 265 -23 -6 -55 -20
-70 -31 l-28 -19 0 115 0 116 -55 0 -55 0 0 -330z m305 36 c87 -37 106 -163
35 -231 -40 -38 -119 -46 -167 -16 -93 59 -81 201 22 247 39 17 68 17 110 0z"/>
<path d="M3280 930 l0 -330 55 0 55 0 0 95 c0 52 4 95 8 95 4 0 45 -43 91 -95
l83 -95 64 0 c35 0 64 3 64 6 0 3 -44 55 -97 115 -54 61 -99 114 -101 119 -2
5 40 56 92 114 53 57 96 107 96 110 0 3 -30 6 -67 6 l-68 -1 -80 -92 -80 -92
-3 188 -2 187 -55 0 -55 0 0 -330z"/>
<path d="M2345 1078 c-53 -15 -137 -99 -153 -154 -38 -130 13 -259 122 -310
81 -38 182 -28 238 23 17 15 18 14 18 -10 0 -26 2 -27 55 -27 l55 0 0 235 0
235 -55 0 c-49 0 -55 -2 -55 -20 0 -20 -1 -20 -42 4 -51 29 -127 39 -183 24z
m160 -122 c60 -39 79 -112 46 -178 -25 -53 -65 -78 -123 -78 -85 0 -146 70
-135 153 14 103 128 158 212 103z"/>
<path d="M2960 1078 c-19 -5 -42 -16 -51 -24 -20 -18 -29 -18 -29 1 0 12 -13
15 -55 15 l-55 0 0 -235 0 -235 55 0 55 0 0 143 c0 115 3 149 18 177 31 62
108 80 159 36 l28 -24 3 -166 3 -166 55 0 54 0 0 173 c-1 221 -18 267 -117
303 -44 15 -74 16 -123 2z"/>
</g>
</svg>
